<?xml version="1.0" encoding="UTF-8"?>
<svg version="1.1" xmlns="http://www.w3.org/2000/svg" width="512" height="512">
<path d="M0,0 L4,1 L291,288 L290,293 L262,321 L258,319 L237,298 L230,304 L36,498 L25,505 L14,510 L6,512 L-18,512 L-32,508 L-44,501 L-54,492 L-208,338 L-216,325 L-221,309 L-221,286 L-217,272 L-211,261 L-203,251 L-70,118 L-76,111 L-109,78 L-116,70 L-129,57 L-127,53 L-99,25 L-92,31 L-62,61 L-55,69 L-39,85 L-35,83 L-7,55 L-13,48 L-29,32 L-28,28 Z M24,86 L-7,117 L-1,124 L17,142 L24,150 L92,218 L91,222 L64,249 L60,248 L53,240 L-24,163 L-31,155 L-37,149 L-41,151 L-172,282 L-177,290 L-178,300 L-174,310 L-20,464 L-13,468 L-4,469 L5,466 L17,455 L205,267 L203,263 L26,86 Z " fill="#ffffff" transform="translate(221,0)"/>
<path d="M0,0 L5,5 L13,15 L27,35 L40,56 L51,79 L54,89 L54,107 L50,120 L43,131 L35,139 L26,145 L15,149 L11,150 L-10,150 L-22,146 L-32,140 L-41,132 L-48,121 L-52,110 L-53,105 L-53,90 L-48,76 L-40,60 L-32,46 L-14,19 L-1,1 Z " fill="#ffffff" transform="translate(458,362)"/>
</svg>
