<svg id="svg" version="1.1" xmlns="http://www.w3.org/2000/svg" xmlns:xlink="http://www.w3.org/1999/xlink" width="400" height="400" viewBox="0, 0, 400,400"><g id="svgg"><path id="path0" d="M153.707 0.373 C 152.995 0.551,150.385 0.819,147.907 0.969 C 139.746 1.464,134.817 2.007,129.272 3.023 C 120.200 4.685,106.941 8.204,105.820 9.247 C 105.611 9.441,105.161 9.601,104.820 9.602 C 104.151 9.604,99.748 11.319,99.324 11.743 C 99.183 11.884,98.744 12.000,98.349 12.000 C 97.955 12.000,94.274 13.617,90.170 15.593 C 83.627 18.744,79.864 20.810,71.800 25.681 C 56.866 34.700,35.454 56.046,25.946 71.394 C 20.319 80.477,13.710 93.010,12.204 97.453 C 11.840 98.524,11.092 100.570,10.539 102.000 C 9.987 103.430,9.085 105.764,8.534 107.187 C 5.490 115.057,1.892 133.378,1.209 144.482 C 0.975 148.287,0.581 152.601,0.334 154.068 C 0.005 156.012,0.001 157.368,0.319 159.068 C 0.558 160.351,0.865 163.380,1.000 165.800 C 1.715 178.599,4.930 196.367,8.057 204.800 C 8.506 206.010,9.127 207.675,9.437 208.500 C 9.746 209.325,10.247 210.675,10.549 211.500 C 13.701 220.105,24.068 240.256,27.475 244.400 C 27.746 244.730,29.871 247.512,32.196 250.581 C 43.596 265.630,58.529 279.392,73.534 288.677 C 75.880 290.129,78.264 291.633,78.831 292.019 C 80.839 293.388,96.920 301.096,99.220 301.792 C 99.759 301.955,100.740 302.320,101.400 302.602 C 109.404 306.021,124.426 309.941,134.600 311.264 C 144.238 312.517,170.989 312.636,178.000 311.457 C 180.310 311.069,183.190 310.589,184.400 310.392 C 190.665 309.368,203.564 305.925,208.500 303.957 C 209.545 303.541,211.345 302.830,212.500 302.379 C 213.655 301.927,214.960 301.394,215.400 301.194 C 215.840 300.995,218.067 300.005,220.348 298.995 C 229.117 295.114,235.481 291.584,243.522 286.143 C 246.890 283.864,249.912 282.000,250.238 282.000 C 250.564 282.000,277.292 308.406,309.634 340.680 L 368.437 399.359 383.819 383.981 C 392.279 375.523,399.156 368.469,399.100 368.306 C 399.045 368.142,375.419 344.381,346.597 315.504 C 287.427 256.220,282.000 250.725,282.000 250.095 C 282.000 249.847,283.864 246.890,286.143 243.522 C 292.259 234.484,295.700 228.061,301.209 215.400 C 301.400 214.960,301.927 213.655,302.379 212.500 C 302.830 211.345,303.541 209.545,303.957 208.500 C 305.925 203.564,309.368 190.665,310.392 184.400 C 310.589 183.190,311.069 180.310,311.457 178.000 C 312.636 170.989,312.517 144.238,311.264 134.600 C 309.978 124.710,305.989 109.282,302.785 101.800 C 302.596 101.360,301.953 99.740,301.355 98.200 C 299.977 94.649,293.460 81.054,292.246 79.200 C 291.742 78.430,290.139 75.880,288.684 73.534 C 279.336 58.465,265.719 43.693,250.600 32.219 C 247.520 29.882,244.672 27.696,244.270 27.363 C 243.869 27.030,242.672 26.272,241.610 25.679 C 240.548 25.085,237.816 23.484,235.539 22.119 C 231.128 19.476,217.000 12.481,214.000 11.456 C 213.010 11.118,211.210 10.464,210.000 10.004 C 204.657 7.970,203.004 7.459,196.400 5.797 C 189.150 3.972,180.369 2.238,176.200 1.806 C 174.053 1.584,161.439 0.529,156.800 0.184 C 155.810 0.110,154.418 0.195,153.707 0.373 M177.535 16.195 C 187.565 17.702,201.099 21.082,202.580 22.449 C 202.789 22.642,203.220 22.800,203.537 22.800 C 204.097 22.800,209.974 25.023,212.800 26.304 C 219.059 29.142,226.722 32.962,228.294 34.028 C 229.343 34.739,231.460 36.068,233.000 36.982 C 234.540 37.896,237.150 39.661,238.800 40.904 C 240.450 42.148,242.610 43.755,243.600 44.475 C 248.505 48.046,257.822 56.878,264.448 64.238 C 267.346 67.457,276.800 80.259,276.800 80.964 C 276.800 81.182,280.068 86.498,280.388 86.800 C 282.833 89.108,291.189 109.984,293.998 120.800 C 294.483 122.670,295.041 124.650,295.237 125.200 C 295.433 125.750,295.780 127.550,296.009 129.200 C 296.237 130.850,296.583 132.830,296.777 133.600 C 298.338 139.792,298.835 168.378,297.498 175.000 C 297.142 176.760,296.730 179.460,296.581 181.000 C 296.432 182.540,296.049 184.790,295.729 186.000 C 295.408 187.210,294.604 190.264,293.941 192.787 C 290.879 204.437,284.152 220.966,280.040 226.941 C 279.358 227.933,278.800 228.869,278.800 229.022 C 278.800 229.551,273.444 237.427,269.509 242.685 C 262.281 252.343,249.665 264.768,240.568 271.189 C 237.523 273.338,229.925 278.400,229.743 278.400 C 229.654 278.400,228.458 279.109,227.087 279.975 C 221.783 283.324,204.666 290.741,198.000 292.578 C 197.450 292.730,196.370 293.034,195.600 293.254 C 194.205 293.652,192.546 294.076,189.700 294.761 C 188.875 294.960,187.210 295.392,186.000 295.720 C 184.790 296.049,182.630 296.436,181.200 296.582 C 179.770 296.727,177.160 297.141,175.400 297.501 C 168.303 298.954,140.124 298.365,132.800 296.610 C 131.590 296.320,129.572 295.974,128.315 295.840 C 127.058 295.706,125.618 295.433,125.115 295.234 C 124.612 295.034,122.670 294.476,120.800 293.993 C 110.078 291.224,88.814 282.727,86.800 280.407 C 86.516 280.079,81.196 276.800,80.949 276.800 C 80.494 276.800,70.868 269.868,66.984 266.744 C 60.536 261.556,49.035 249.796,44.869 244.129 C 43.841 242.732,41.907 240.106,40.570 238.294 C 39.234 236.482,37.622 234.100,36.988 233.000 C 36.355 231.900,35.147 229.979,34.304 228.731 C 32.002 225.321,26.275 213.231,24.012 207.000 C 23.293 205.020,22.477 202.860,22.199 202.200 C 19.482 195.741,16.136 179.991,15.231 169.396 C 14.102 156.194,15.358 135.366,17.823 126.400 C 18.155 125.190,19.053 121.800,19.817 118.868 C 20.581 115.935,21.582 112.605,22.042 111.468 C 23.138 108.755,23.778 107.075,24.732 104.400 C 26.047 100.714,30.734 90.788,32.723 87.474 C 33.755 85.755,34.780 84.044,35.000 83.673 C 46.062 64.999,64.999 46.062,83.673 35.000 C 84.044 34.780,85.755 33.755,87.474 32.723 C 90.788 30.734,100.714 26.047,104.400 24.732 C 107.080 23.776,108.758 23.137,111.476 22.038 C 112.618 21.576,115.588 20.673,118.076 20.030 C 120.564 19.387,124.040 18.465,125.800 17.980 C 137.584 14.736,162.176 13.887,177.535 16.195 M325.868 314.963 C 354.980 344.093,378.800 368.164,378.800 368.455 C 378.800 369.129,369.085 378.800,368.408 378.800 C 367.774 378.800,262.000 273.139,262.000 272.505 C 262.000 271.876,271.815 262.000,272.440 262.000 C 272.713 262.000,296.755 285.833,325.868 314.963 " stroke="none" fill="#79c7c4" fill-rule="evenodd"></path><path id="path1" d="" stroke="none" fill="#080404" fill-rule="evenodd"></path><path id="path2" d="" stroke="none" fill="#080404" fill-rule="evenodd"></path><path id="path3" d="" stroke="none" fill="#080404" fill-rule="evenodd"></path><path id="path4" d="" stroke="none" fill="#080404" fill-rule="evenodd"></path></g></svg>